<svg width="21" height="25" viewBox="0 0 21 25" fill="none" xmlns="http://www.w3.org/2000/svg">
<path d="M2.23085 18H17.8468V10.1599C17.8468 5.7915 14.351 2.25 10.0388 2.25C5.72658 2.25 2.23085 5.7915 2.23085 10.1599V18ZM10.0388 0C15.5825 0 20.0776 4.54837 20.0776 10.1599V20.25H0V10.1599C0 4.54837 4.49516 0 10.0388 0ZM7.25025 21.375H12.8274C12.8274 22.1209 12.5336 22.8363 12.0106 23.3637C11.4877 23.8912 10.7784 24.1875 10.0388 24.1875C9.29924 24.1875 8.58996 23.8912 8.067 23.3637C7.54404 22.8363 7.25025 22.1209 7.25025 21.375Z" fill="white"/>
</svg>
