<?xml version="1.0" encoding="utf-8"?><!-- Uploaded to: SVG Repo, www.svgrepo.com, Generator: SVG Repo Mixer Tools -->
<svg fill="#000000" width="800px" height="800px" viewBox="0 0 24 24" id="sunset" data-name="Flat Color" xmlns="http://www.w3.org/2000/svg" class="icon flat-color"><circle id="primary" cx="12" cy="14" r="5" style="fill: rgb(0, 0, 0);"></circle><path id="secondary" d="M21,15H20a1,1,0,0,1,0-2h1a1,1,0,0,1,0,2ZM4,15H3a1,1,0,0,1,0-2H4a1,1,0,0,1,0,2ZM17.66,9.34A1,1,0,0,1,17,9.05a1,1,0,0,1,0-1.41l.71-.71a1,1,0,1,1,1.41,1.41l-.71.71A1,1,0,0,1,17.66,9.34Zm-11.32,0a1,1,0,0,1-.7-.29l-.71-.71A1,1,0,0,1,6.34,6.93l.71.71a1,1,0,0,1,0,1.41A1,1,0,0,1,6.34,9.34ZM12,7a1,1,0,0,1-1-1V5a1,1,0,0,1,2,0V6A1,1,0,0,1,12,7ZM22,18a1,1,0,0,0-1-1H3a1,1,0,0,0,0,2H21A1,1,0,0,0,22,18Z" style="fill: rgb(44, 169, 188);"></path></svg>